<svg width="17" height="20" viewBox="0 0 17 20" fill="none" xmlns="http://www.w3.org/2000/svg">
<path fill-rule="evenodd" clip-rule="evenodd" d="M4 8.5V15H13V8.5C13 6 11 4 8.5 4C6 4 4 6 4 8.5ZM15 8.5V14L17 16V17H0V16L2 14V8.5C2 5.43 4.13 2.86 7 2.18V1.5C7 1.10218 7.15804 0.720644 7.43934 0.43934C7.72064 0.158035 8.10218 0 8.5 0C8.89782 0 9.27936 0.158035 9.56066 0.43934C9.84196 0.720644 10 1.10218 10 1.5V2.18C12.86 2.86 15 5.43 15 8.5ZM9.91421 19.4142C9.53914 19.7893 9.03043 20 8.5 20C7.96957 20 7.46086 19.7893 7.08579 19.4142C6.71071 19.0391 6.5 18.5304 6.5 18H10.5C10.5 18.5304 10.2893 19.0391 9.91421 19.4142Z" fill="white"/>
</svg>
