<svg width="16" height="16" viewBox="0 0 16 16" fill="none" xmlns="http://www.w3.org/2000/svg">
<path fill-rule="evenodd" clip-rule="evenodd" d="M4 4C4 1.79 5.79 0 8 0C10.21 0 12 1.79 12 4C12 6.21 10.21 8 8 8C5.79 8 4 6.21 4 4ZM8 1.9C9.16 1.9 10.1 2.84 10.1 4C10.1 5.16 9.16 6.1 8 6.1C6.84 6.1 5.9 5.16 5.9 4C5.9 2.84 6.84 1.9 8 1.9ZM8 10.9C10.97 10.9 14.1 12.36 14.1 13V14.1H1.9V13C1.9 12.36 5.03 10.9 8 10.9ZM8 9C5.33 9 0 10.34 0 13V15.5C0 15.7761 0.223858 16 0.5 16H15.5C15.7761 16 16 15.7761 16 15.5V13C16 10.34 10.67 9 8 9Z" fill="white"/>
</svg>
