<svg width="18" height="18" viewBox="0 0 18 18" fill="none" xmlns="http://www.w3.org/2000/svg">
<path fill-rule="evenodd" clip-rule="evenodd" d="M13.67 10L11.08 12.59L12.5 14L17.5 9L12.5 4L11.08 5.41L13.67 8H4V10H13.67ZM17.4142 0.585786C17.0391 0.210714 16.5304 0 16 0H2C0.89 0 0 0.89 0 2V16C0 17.1 0.89 18 2 18H16C16.5304 18 17.0391 17.7893 17.4142 17.4142C17.7893 17.0391 18 16.5304 18 16V11.33L16 13.33V16H2V2H16V4.67L18 6.67V2C18 1.46957 17.7893 0.960859 17.4142 0.585786Z" fill="white"/>
</svg>
