<svg width="24" height="14" viewBox="0 0 24 14" fill="none" xmlns="http://www.w3.org/2000/svg">
<path fill-rule="evenodd" clip-rule="evenodd" d="M0 12.5V14H3V12.07C3 11.06 3.69 10.22 4.71 9.55C2.78 9.78 0 10.76 0 12.5ZM24 14V12.5C24 10.76 21.22 9.78 19.29 9.55C20.31 10.22 21 11.06 21 12.07V14H24ZM9.52513 1.02513C10.1815 0.368749 11.0717 0 12 0C12.9283 0 13.8185 0.368749 14.4749 1.02513C15.1313 1.6815 15.5 2.57174 15.5 3.5C15.5 4.42826 15.1313 5.3185 14.4749 5.97487C13.8185 6.63125 12.9283 7 12 7C11.0717 7 10.1815 6.63125 9.52513 5.97487C8.86875 5.3185 8.5 4.42826 8.5 3.5C8.5 2.57174 8.86875 1.6815 9.52513 1.02513ZM13.0607 2.43934C12.7794 2.15804 12.3978 2 12 2C11.6022 2 11.2206 2.15804 10.9393 2.43934C10.658 2.72064 10.5 3.10218 10.5 3.5C10.5 3.89782 10.658 4.27936 10.9393 4.56066C11.2206 4.84196 11.6022 5 12 5C12.3978 5 12.7794 4.84196 13.0607 4.56066C13.342 4.27936 13.5 3.89782 13.5 3.5C13.5 3.10218 13.342 2.72064 13.0607 2.43934ZM3.73223 3.73223C4.20107 3.26339 4.83696 3 5.5 3C5.86 3 6.2 3.08 6.5 3.22V3.5C6.5 4.7 6.89 5.86 7.62 6.81C7.39 7.17 7.08 7.47 6.71 7.68C6.35 7.88 5.94 8 5.5 8C5.06 8 4.65 7.88 4.29 7.68C3.53 7.25 3 6.44 3 5.5C3 4.83696 3.26339 4.20107 3.73223 3.73223ZM17.5 3.22C17.8 3.08 18.14 3 18.5 3C19.163 3 19.7989 3.26339 20.2678 3.73223C20.7366 4.20107 21 4.83696 21 5.5C21 6.44 20.47 7.25 19.71 7.68C19.35 7.88 18.94 8 18.5 8C18.06 8 17.65 7.88 17.29 7.68C17.1 7.58 16.94 7.45 16.78 7.3C16.63 7.15 16.5 7 16.38 6.81C17.11 5.86 17.5 4.7 17.5 3.5V3.22ZM5 12.5C5 10.17 9.66 9 12 9C14.34 9 19 10.17 19 12.5V14H5V12.5ZM16.23 12C15.24 11.5 13.53 11 12 11C10.47 11 8.76 11.5 7.77 12H16.23Z" fill="white"/>
</svg>
