<svg width="24" height="14" viewBox="0 0 24 14" fill="none" xmlns="http://www.w3.org/2000/svg">
<path fill-rule="evenodd" clip-rule="evenodd" d="M24 7C24 5.14348 23.2625 3.36301 21.9497 2.05025C20.637 0.737498 18.8565 0 17 0H7C5.14348 0 3.36301 0.737498 2.05025 2.05025C0.737498 3.36301 0 5.14348 0 7C0 8.85652 0.737498 10.637 2.05025 11.9497C3.36301 13.2625 5.14348 14 7 14C8.96 14 10.73 13.2 12 11.9C13.27 13.2 15.04 14 17 14C18.8565 14 20.637 13.2625 21.9497 11.9497C23.2625 10.637 24 8.85652 24 7ZM8 6V4H6V6H4V8H6V10H8V8H10V6H8ZM19.5607 4.43934C19.2794 4.15804 18.8978 4 18.5 4C18.1022 4 17.7206 4.15804 17.4393 4.43934C17.158 4.72064 17 5.10218 17 5.5C17 5.89782 17.158 6.27936 17.4393 6.56066C17.7206 6.84196 18.1022 7 18.5 7C18.8978 7 19.2794 6.84196 19.5607 6.56066C19.842 6.27936 20 5.89782 20 5.5C20 5.10218 19.842 4.72064 19.5607 4.43934ZM16.5607 7.43934C16.2794 7.15804 15.8978 7 15.5 7C15.1022 7 14.7206 7.15804 14.4393 7.43934C14.158 7.72064 14 8.10218 14 8.5C14 8.89782 14.158 9.27936 14.4393 9.56066C14.7206 9.84196 15.1022 10 15.5 10C15.8978 10 16.2794 9.84196 16.5607 9.56066C16.842 9.27936 17 8.89782 17 8.5C17 8.10218 16.842 7.72064 16.5607 7.43934ZM3.46447 3.46447C4.40215 2.52678 5.67392 2 7 2H17C18.3261 2 19.5979 2.52678 20.5355 3.46447C21.4732 4.40215 22 5.67392 22 7C22 8.32608 21.4732 9.59785 20.5355 10.5355C19.5979 11.4732 18.3261 12 17 12C15.36 12 13.91 11.21 13 10H11C10.09 11.21 8.64 12 7 12C5.67392 12 4.40215 11.4732 3.46447 10.5355C2.52678 9.59785 2 8.32608 2 7C2 5.67392 2.52678 4.40215 3.46447 3.46447Z" fill="white"/>
</svg>
