<svg width="20" height="20" viewBox="0 0 20 20" fill="none" xmlns="http://www.w3.org/2000/svg">
<path fill-rule="evenodd" clip-rule="evenodd" d="M7.17007 5.76007C5.22007 7.71007 5.22007 10.8801 7.17007 12.8301C7.56007 13.2201 8.20007 13.2201 8.59007 12.8301C9.00007 12.4401 9.00007 11.8001 8.59007 11.4101C7.41007 10.2401 7.41007 8.34007 8.59007 7.17007L12.1201 3.64007C13.2901 2.46007 15.1901 2.46007 16.3601 3.64007C17.5401 4.81007 17.5401 6.71007 16.3601 7.88007L15.8901 8.36007C16.1701 9.14007 16.3001 9.96007 16.2901 10.7801L17.7801 9.29007C19.7301 7.34007 19.7301 4.17007 17.7801 2.22007C15.8301 0.270068 12.6601 0.270068 10.7101 2.22007L7.17007 5.76007ZM12.8301 7.17007C12.4401 6.78007 11.8001 6.78007 11.4101 7.17007C11.0001 7.56007 11.0001 8.20007 11.4101 8.59007C12.5901 9.76007 12.5901 11.6601 11.4101 12.8301L7.88007 16.3601C6.71007 17.5401 4.81007 17.5401 3.64007 16.3601C2.46007 15.1901 2.46007 13.2901 3.64007 12.1201L4.11007 11.6501C3.83007 10.8601 3.70007 10.0401 3.71007 9.22007L2.22007 10.7101C0.270068 12.6601 0.270068 15.8301 2.22007 17.7801C4.17007 19.7301 7.34007 19.7301 9.29007 17.7801L12.8301 14.2401C14.7801 12.2901 14.7801 9.12007 12.8301 7.17007Z" fill="white"/>
</svg>
