<svg width="22" height="22" viewBox="0 0 22 22" fill="none" xmlns="http://www.w3.org/2000/svg">
<path fill-rule="evenodd" clip-rule="evenodd" d="M12 0H8C6.89 0 6 0.89 6 2V4H2C0.89 4 0 4.89 0 6V17C0 18.1 0.89 19 2 19H9.81C9.26 18.42 8.81 17.75 8.5 17H2V6H18V9C18.8 9.54 19.5 10.23 20 11.03V6C20 5.46957 19.7893 4.96086 19.4142 4.58579C19.0391 4.21071 18.5304 4 18 4H14V2C14 1.46957 13.7893 0.960859 13.4142 0.585786C13.0391 0.210714 12.5304 0 12 0ZM12 2V4H8V2H12ZM21.39 20L18.31 16.9C18.75 16.21 19 15.38 19 14.5C19 12 17 10 14.5 10C12 10 10 12 10 14.5C10 17 12 19 14.5 19C15.37 19 16.19 18.75 16.88 18.32L20 21.39L21.39 20ZM16.2678 16.2678C15.7989 16.7366 15.163 17 14.5 17C13.837 17 13.2011 16.7366 12.7322 16.2678C12.2634 15.7989 12 15.163 12 14.5C12 13.837 12.2634 13.2011 12.7322 12.7322C13.2011 12.2634 13.837 12 14.5 12C15.163 12 15.7989 12.2634 16.2678 12.7322C16.7366 13.2011 17 13.837 17 14.5C17 15.163 16.7366 15.7989 16.2678 16.2678Z" fill="white"/>
</svg>
