<svg width="88" height="25" viewBox="0 0 88 25" fill="none" xmlns="http://www.w3.org/2000/svg">
<path d="M33.1675 21V4.58105H35.8516V18.6978H42.8032V21H33.1675ZM47.9917 21H45.3525V8.5791H47.9917V21ZM45.1953 5.28857C45.1953 4.81689 45.3226 4.45378 45.5771 4.19922C45.8392 3.94466 46.2098 3.81738 46.689 3.81738C47.1532 3.81738 47.5125 3.94466 47.7671 4.19922C48.0291 4.45378 48.1602 4.81689 48.1602 5.28857C48.1602 5.73779 48.0291 6.09342 47.7671 6.35547C47.5125 6.61003 47.1532 6.7373 46.689 6.7373C46.2098 6.7373 45.8392 6.61003 45.5771 6.35547C45.3226 6.09342 45.1953 5.73779 45.1953 5.28857ZM58.1216 8.35449C59.6714 8.35449 60.8768 8.91602 61.7378 10.0391C62.6063 11.1621 63.0405 12.7381 63.0405 14.7671C63.0405 16.8035 62.6025 18.3908 61.7266 19.5288C60.8506 20.6593 59.634 21.2246 58.0767 21.2246C56.5044 21.2246 55.284 20.6593 54.4155 19.5288H54.2358L53.7529 21H51.7764V3.52539H54.4155V7.68066C54.4155 7.98763 54.4006 8.44434 54.3706 9.05078C54.3407 9.65723 54.3182 10.0428 54.3032 10.2075H54.4155C55.2541 8.97217 56.4894 8.35449 58.1216 8.35449ZM57.4365 10.5107C56.3734 10.5107 55.606 10.8252 55.1343 11.4541C54.6701 12.0755 54.4305 13.12 54.4155 14.5874V14.7671C54.4155 16.2795 54.6551 17.3763 55.1343 18.0576C55.6134 18.7314 56.3958 19.0684 57.4814 19.0684C58.4173 19.0684 59.1248 18.6978 59.604 17.9565C60.0907 17.2153 60.334 16.1447 60.334 14.7446C60.334 11.922 59.3682 10.5107 57.4365 10.5107ZM72.4067 8.35449C72.9383 8.35449 73.3763 8.39193 73.7207 8.4668L73.4624 10.9263C73.0881 10.8364 72.6987 10.7915 72.2944 10.7915C71.2388 10.7915 70.3815 11.1359 69.7227 11.8247C69.0713 12.5135 68.7456 13.4082 68.7456 14.5088V21H66.1064V8.5791H68.1729L68.521 10.769H68.6558C69.0675 10.0278 69.6029 9.4401 70.2617 9.00586C70.9281 8.57161 71.6431 8.35449 72.4067 8.35449ZM83.8057 21L83.2778 19.2705H83.188C82.589 20.0267 81.9863 20.5433 81.3799 20.8203C80.7734 21.0898 79.9948 21.2246 79.0439 21.2246C77.8236 21.2246 76.869 20.8952 76.1802 20.2363C75.4989 19.5775 75.1582 18.6453 75.1582 17.4399C75.1582 16.1597 75.6336 15.1938 76.5845 14.5425C77.5353 13.8911 78.984 13.5355 80.9307 13.4756L83.0757 13.4082V12.7456C83.0757 11.952 82.8885 11.3605 82.5142 10.9712C82.1473 10.5744 81.5745 10.376 80.7959 10.376C80.1595 10.376 79.5493 10.4696 78.9653 10.6567C78.3813 10.8439 77.8198 11.0648 77.2808 11.3193L76.4272 9.43262C77.1011 9.08073 77.8385 8.81494 78.6396 8.63525C79.4408 8.44808 80.1969 8.35449 80.9082 8.35449C82.488 8.35449 83.6784 8.69889 84.4795 9.3877C85.2881 10.0765 85.6924 11.1584 85.6924 12.6333V21H83.8057ZM79.875 19.2031C80.8333 19.2031 81.6007 18.9373 82.1772 18.4058C82.7612 17.8667 83.0532 17.1143 83.0532 16.1484V15.0703L81.4585 15.1377C80.2157 15.1826 79.3097 15.3923 78.7407 15.7666C78.1792 16.1335 77.8984 16.6987 77.8984 17.4624C77.8984 18.0164 78.0632 18.4469 78.3926 18.7539C78.722 19.0534 79.2161 19.2031 79.875 19.2031Z" fill="white"/>
<path d="M12.4917 14.8592V11.4438H23.8319C23.9428 12.0391 24 12.7432 24 13.5054C24 16.0678 23.3098 19.2364 21.0854 21.4939C18.9218 23.7805 16.1574 25 12.4953 25C5.70764 25 0 19.3888 0 12.5C0 5.61121 5.70764 0 12.4953 0C16.2503 0 18.9253 1.49535 20.9352 3.4444L18.5606 5.85439C17.1194 4.48243 15.1667 3.41536 12.4917 3.41536C7.53509 3.41536 3.65847 7.46951 3.65847 12.5C3.65847 17.5305 7.53509 21.5846 12.4917 21.5846C15.7067 21.5846 17.5378 20.2744 18.7108 19.0839C19.662 18.1185 20.2879 16.7393 20.5346 14.8555L12.4917 14.8592Z" fill="white"/>
</svg>
