<svg width="24" height="24" viewBox="0 0 24 24" fill="none" xmlns="http://www.w3.org/2000/svg">
<g clip-path="url(#clip0)">
<path d="M19.2867 7.34315C20.787 8.84344 21.6299 10.8783 21.6299 13C21.6299 15.1217 20.787 17.1566 19.2867 18.6569C17.7864 20.1571 15.7516 21 13.6299 21C11.5081 21 9.4733 20.1571 7.97301 18.6569C6.47271 17.1566 5.62986 15.1217 5.62986 13C5.62986 10.8783 6.47272 8.84344 7.97301 7.34315C9.4733 5.84285 11.5081 5 13.6299 5C15.7516 5 17.7864 5.84285 19.2867 7.34315ZM9.38722 17.2426C10.5124 18.3679 12.0386 19 13.6299 19C15.2212 19 16.7473 18.3679 17.8725 17.2426C18.9977 16.1174 19.6299 14.5913 19.6299 13C19.6299 11.4087 18.9977 9.88258 17.8725 8.75736C16.7473 7.63214 15.2212 7 13.6299 7C12.0386 7 10.5124 7.63214 9.38722 8.75736C8.262 9.88258 7.62986 11.4087 7.62986 13C7.62986 14.5913 8.262 16.1174 9.38722 17.2426ZM5.14458 4.51472C3.29903 6.36027 2.91012 9.11091 3.97785 11.3383V14C4.55448e-07 11 1.09286 5.73801 3.73037 3.10051C6.36787 0.462997 11.5 8.4934e-08 14.5086 3.1005L11.9682 3.34799C9.74077 2.28026 6.99013 2.66917 5.14458 4.51472Z" fill="white"/>
<rect x="12.7" y="10" width="1.7" height="6" fill="white"/>
</g>
<defs>
<clipPath id="clip0">
<rect width="24" height="24" fill="white"/>
</clipPath>
</defs>
</svg>
